<?xml version="1.0" encoding="UTF-8"?>
<svg id="Layer_1" xmlns="http://www.w3.org/2000/svg" version="1.1" xmlns:xlink="http://www.w3.org/1999/xlink" viewBox="0 0 1200 370">
  <!-- Generator: Adobe Illustrator 29.3.1, SVG Export Plug-In . SVG Version: 2.1.0 Build 151)  -->
  <defs>
    <style>
      .st0 {
        clip-path: url(#clippath-76);
      }

      .st1 {
        clip-path: url(#clippath-51);
      }

      .st2 {
        clip-path: url(#clippath-34);
      }

      .st3 {
        clip-path: url(#clippath-107);
      }

      .st4 {
        clip-path: url(#clippath-133);
      }

      .st5 {
        clip-path: url(#clippath-38);
      }

      .st6 {
        clip-path: url(#clippath-21);
      }

      .st7 {
        clip-path: url(#clippath-6);
      }

      .st8 {
        clip-path: url(#clippath-7);
      }

      .st9 {
        clip-path: url(#clippath-17);
      }

      .st10 {
        clip-path: url(#clippath-80);
      }

      .st11 {
        clip-path: url(#clippath-31);
      }

      .st12 {
        clip-path: url(#clippath-79);
      }

      .st13 {
        clip-path: url(#clippath-75);
      }

      .st14 {
        clip-path: url(#clippath-15);
      }

      .st15 {
        clip-path: url(#clippath-33);
      }

      .st16 {
        clip-path: url(#clippath-61);
      }

      .st17 {
        clip-path: url(#clippath-116);
      }

      .st18 {
        clip-path: url(#clippath-100);
      }

      .st19 {
        clip-path: url(#clippath-18);
      }

      .st20 {
        clip-path: url(#clippath-47);
      }

      .st21 {
        clip-path: url(#clippath-4);
      }

      .st22 {
        clip-path: url(#clippath-71);
      }

      .st23 {
        clip-path: url(#clippath-126);
      }

      .st24 {
        clip-path: url(#clippath-120);
      }

      .st25 {
        clip-path: url(#clippath-22);
      }

      .st26 {
        mask: url(#mask-1);
      }

      .st27 {
        clip-path: url(#clippath-103);
      }

      .st28 {
        clip-path: url(#clippath-23);
      }

      .st29 {
        clip-path: url(#clippath-82);
      }

      .st30 {
        clip-path: url(#clippath-54);
      }

      .st31 {
        clip-path: url(#clippath-66);
      }

      .st32 {
        clip-path: url(#clippath-114);
      }

      .st33 {
        clip-path: url(#clippath-128);
      }

      .st34 {
        clip-path: url(#clippath-9);
      }

      .st35 {
        clip-path: url(#clippath-121);
      }

      .st36 {
        clip-path: url(#clippath-102);
      }

      .st37 {
        clip-path: url(#clippath-70);
      }

      .st38 {
        clip-path: url(#clippath-10);
      }

      .st39 {
        clip-path: url(#clippath-42);
      }

      .st40 {
        clip-path: url(#clippath-132);
      }

      .st41 {
        clip-path: url(#clippath-59);
      }

      .st42 {
        mask: url(#mask);
      }

      .st43 {
        clip-path: url(#clippath-43);
      }

      .st44 {
        clip-path: url(#clippath-64);
      }

      .st45 {
        clip-path: url(#clippath-101);
      }

      .st46 {
        clip-path: url(#clippath-25);
      }

      .st47 {
        clip-path: url(#clippath-27);
      }

      .st48 {
        clip-path: url(#clippath-109);
      }

      .st49 {
        fill: #fff;
        stroke: #000;
        stroke-miterlimit: 10;
      }

      .st50 {
        clip-path: url(#clippath-130);
      }

      .st51 {
        clip-path: url(#clippath-60);
      }

      .st52 {
        clip-path: url(#clippath-113);
      }

      .st53 {
        clip-path: url(#clippath-93);
      }

      .st54 {
        clip-path: url(#clippath-11);
      }

      .st55 {
        clip-path: url(#clippath-57);
      }

      .st56 {
        clip-path: url(#clippath-88);
      }

      .st57 {
        fill: none;
      }

      .st58 {
        clip-path: url(#clippath-85);
      }

      .st59 {
        clip-path: url(#clippath-111);
      }

      .st60 {
        clip-path: url(#clippath-105);
      }

      .st61 {
        clip-path: url(#clippath-36);
      }

      .st62 {
        clip-path: url(#clippath-92);
      }

      .st63 {
        clip-path: url(#clippath-35);
      }

      .st64 {
        clip-path: url(#clippath-98);
      }

      .st65 {
        clip-path: url(#clippath-48);
      }

      .st66 {
        clip-path: url(#clippath-104);
      }

      .st67 {
        clip-path: url(#clippath-28);
      }

      .st68 {
        clip-path: url(#clippath-118);
      }

      .st69 {
        clip-path: url(#clippath-1);
      }

      .st70 {
        clip-path: url(#clippath-56);
      }

      .st71 {
        clip-path: url(#clippath-108);
      }

      .st72 {
        clip-path: url(#clippath-90);
      }

      .st73 {
        clip-path: url(#clippath-45);
      }

      .st74 {
        isolation: isolate;
      }

      .st75 {
        clip-path: url(#clippath-110);
      }

      .st76 {
        clip-path: url(#clippath-99);
      }

      .st77 {
        clip-path: url(#clippath-89);
      }

      .st78 {
        clip-path: url(#clippath-46);
      }

      .st79 {
        clip-path: url(#clippath-40);
      }

      .st80 {
        clip-path: url(#clippath-96);
      }

      .st81 {
        clip-path: url(#clippath-5);
      }

      .st82 {
        clip-path: url(#clippath-20);
      }

      .st83 {
        clip-path: url(#clippath-95);
      }

      .st84 {
        clip-path: url(#clippath-8);
      }

      .st85 {
        clip-path: url(#clippath-52);
      }

      .st86 {
        clip-path: url(#clippath-41);
      }

      .st87 {
        clip-path: url(#clippath-67);
      }

      .st88 {
        clip-path: url(#clippath-74);
      }

      .st89 {
        clip-path: url(#clippath-3);
      }

      .st90 {
        clip-path: url(#clippath-26);
      }

      .st91 {
        clip-path: url(#clippath-91);
      }

      .st92 {
        fill: #22143e;
      }

      .st93 {
        clip-path: url(#clippath-12);
      }

      .st94 {
        clip-path: url(#clippath-50);
      }

      .st95 {
        clip-path: url(#clippath-14);
      }

      .st96 {
        clip-path: url(#clippath-97);
      }

      .st97 {
        clip-path: url(#clippath-30);
      }

      .st98 {
        clip-path: url(#clippath-112);
      }

      .st99 {
        clip-path: url(#clippath-77);
      }

      .st100 {
        clip-path: url(#clippath-19);
      }

      .st101 {
        clip-path: url(#clippath-127);
      }

      .st102 {
        clip-path: url(#clippath-117);
      }

      .st103 {
        clip-path: url(#clippath-78);
      }

      .st104 {
        clip-path: url(#clippath-72);
      }

      .st105 {
        clip-path: url(#clippath-84);
      }

      .st106 {
        clip-path: url(#clippath-32);
      }

      .st107 {
        clip-path: url(#clippath-55);
      }

      .st108 {
        clip-path: url(#clippath-123);
      }

      .st109 {
        clip-path: url(#clippath-129);
      }

      .st110 {
        clip-path: url(#clippath-73);
      }

      .st111 {
        clip-path: url(#clippath-53);
      }

      .st112 {
        clip-path: url(#clippath-39);
      }

      .st113 {
        clip-path: url(#clippath-122);
      }

      .st114 {
        clip-path: url(#clippath-81);
      }

      .st115 {
        clip-path: url(#clippath-106);
      }

      .st116 {
        clip-path: url(#clippath-125);
      }

      .st117 {
        clip-path: url(#clippath-16);
      }

      .st118 {
        clip-path: url(#clippath-119);
      }

      .st119 {
        clip-path: url(#clippath-2);
      }

      .st120 {
        clip-path: url(#clippath-29);
      }

      .st121 {
        clip-path: url(#clippath-131);
      }

      .st122 {
        clip-path: url(#clippath-49);
      }

      .st123 {
        clip-path: url(#clippath-37);
      }

      .st124 {
        clip-path: url(#clippath-58);
      }

      .st125 {
        clip-path: url(#clippath-124);
      }

      .st126 {
        clip-path: url(#clippath-13);
      }

      .st127 {
        clip-path: url(#clippath-86);
      }

      .st128 {
        clip-path: url(#clippath-63);
      }

      .st129 {
        clip-path: url(#clippath-24);
      }

      .st130 {
        clip-path: url(#clippath-94);
      }

      .st131 {
        clip-path: url(#clippath);
      }

      .st132 {
        clip-path: url(#clippath-87);
      }

      .st133 {
        clip-path: url(#clippath-68);
      }

      .st134 {
        clip-path: url(#clippath-83);
      }

      .st135 {
        clip-path: url(#clippath-65);
      }

      .st136 {
        clip-path: url(#clippath-134);
      }

      .st137 {
        clip-path: url(#clippath-44);
      }

      .st138 {
        clip-path: url(#clippath-115);
      }

      .st139 {
        clip-path: url(#clippath-62);
      }

      .st140 {
        clip-path: url(#clippath-69);
      }
    </style>
    <clipPath id="clippath">
      <rect class="st57" x="1.1" y="5.3" width="323.9" height="358.7"/>
    </clipPath>
    <mask id="mask" x="-195.8" y="5" width="718.4" height="359.2" maskUnits="userSpaceOnUse">
      <g id="_x32_39eaa2ddd">
        <image width="718" height="359" transform="translate(-195.8 5)" xlink:href="Centralino Flora White-1.png"/>
      </g>
    </mask>
    <clipPath id="clippath-1">
      <rect class="st57" x="198.4" y="142.8" width="71.4" height="100.7"/>
    </clipPath>
    <mask id="mask-1" x="161.8" y="142.8" width="144" height="101" maskUnits="userSpaceOnUse">
      <g id="_x30_b8de3683a">
        <image width="144" height="101" transform="translate(161.8 142.8)" xlink:href="Centralino Flora White-3.png"/>
      </g>
    </mask>
    <clipPath id="clippath-2">
      <rect class="st57" x="227.2" y="236.3" width="20.8" height="29.3"/>
    </clipPath>
    <clipPath id="clippath-3">
      <rect class="st57" x="231.9" y="265.2" width="11.5" height="7.1"/>
    </clipPath>
    <clipPath id="clippath-4">
      <path class="st57" d="M235.7,272c.6.2,1.3.4,1.9.4s1.3-.1,1.9-.4c0,0,0,0,0,0,2.2-.9,3.8-3.4,3.8-6.1v-.7h-11.5v.7c0,2.7,1.6,5.2,3.8,6.1Z"/>
    </clipPath>
    <clipPath id="clippath-5">
      <rect class="st57" x="238" y="263.6" width=".8" height="2"/>
    </clipPath>
    <clipPath id="clippath-6">
      <path class="st57" d="M238.1,263.6c1.8,1.2,0,2,0,2v-2Z"/>
    </clipPath>
    <clipPath id="clippath-7">
      <rect class="st57" x="236.5" y="258.9" width="2.2" height="8.5"/>
    </clipPath>
    <clipPath id="clippath-8">
      <path class="st57" d="M238.6,259.3c-.4,8.1-1.1,7-1.3,6.5-.2-.8-.2-2.4.1-2.7.2-.1.9-.1,1,0,.1.3-.5,1.8-.9,1.9-.3.1-1-.3-1-.3l1,.3s-.9-.2-.9-.5c-.1-.3,1.3-1.5,1.6-1.4.4.2.7,3.8.2,4.3-.2.2-.8.2-1,0-.7-.6-.6-3.4-.6-4.9.1-1.2.2-3.1.7-3.3.2-.2,1,.3,1,.3Z"/>
    </clipPath>
    <clipPath id="clippath-9">
      <rect class="st57" x="233.1" y="264.7" width="2.2" height="1.3"/>
    </clipPath>
    <clipPath id="clippath-10">
      <path class="st57" d="M233.3,264.7c4.2.7.3,1.5-.1,1.1-.2-.2.1-1.1.1-1.1Z"/>
    </clipPath>
    <clipPath id="clippath-11">
      <rect class="st57" x="233.8" y="264.7" width=".6" height=".4"/>
    </clipPath>
    <clipPath id="clippath-12">
      <path class="st57" d="M234.3,264.9c-1.1.4-.2-.2-.2-.2l.2.2Z"/>
    </clipPath>
    <clipPath id="clippath-13">
      <rect class="st57" x="233.1" y="264.2" width=".9" height="1.2"/>
    </clipPath>
    <clipPath id="clippath-14">
      <path class="st57" d="M233.7,264.9c-1,.1-.4-.7-.2-.7s.5,1.2.5,1.2l-.3-.5Z"/>
    </clipPath>
    <clipPath id="clippath-15">
      <rect class="st57" x="232.6" y="264.9" width=".5" height=".4"/>
    </clipPath>
    <clipPath id="clippath-16">
      <path class="st57" d="M233.1,265.1c-1,.3-.1-.2-.1-.2v.2Z"/>
    </clipPath>
    <clipPath id="clippath-17">
      <rect class="st57" x="232" y="264.6" width="1.5" height=".8"/>
    </clipPath>
    <clipPath id="clippath-18">
      <path class="st57" d="M233.5,264.8c-1.1,1.3-1.4-.2-1.4-.2l1.4.2Z"/>
    </clipPath>
    <clipPath id="clippath-19">
      <rect class="st57" x="232.6" y="265" width=".6" height=".4"/>
    </clipPath>
    <clipPath id="clippath-20">
      <path class="st57" d="M233.1,265.3c-1.1.3-.2-.2-.2-.2l.2.2Z"/>
    </clipPath>
    <clipPath id="clippath-21">
      <rect class="st57" x="233" y="264.4" width="5.4" height="2.1"/>
    </clipPath>
    <clipPath id="clippath-22">
      <path class="st57" d="M235,264.8c3,1,.5,1.5.4,1.3s.9-1.2.8-1.3-1.9,1.2-2.1,1.1-.2-.8,0-1c.2-.3,1.6-.3,2.3-.1s1.6,1,1.5,1.1c0,.2-2.1.3-2.6,0-.3-.1-.7-.8-.7-1,.2-.2,1.4-.4,2-.3.4.2,1.1.9,1,1.1-.1.3-2.6.3-2.7,0-.1-.2.4-1.1.8-1.1s1.1.9,1,1.1c-.1.3-3,.4-3.4,0-.2-.1-.2-.8,0-.9.3-.3,1.6-.1,2.5-.1.9.1,2.4,0,2.6.4.2.2-.1,1-.1,1-.1,0-.1-1.1-.1-1.1,0,0,.3.9.1,1.1-.4.5-4.6.2-5-.4-.2-.2-.1-.8.1-1,.4-.3,2.6-.4,3.1-.1.3.2.4.9.3,1-.2.3-1.6.2-1.8.1,0-.1,2-1.2,2.3-1,.3.1.4.9.2,1.1-.2.2-2-.1-2.1-.2,0-.1,2-.9,2.3-.7.2.2.4.8.2,1-.3.4-3.4.4-3.8,0s-.2-.8,0-1c.2-.3,2.1-.5,2.3-.2.1.1-1,1.3-1.1,1.3s0-.9.2-1c.4-.2,2.5.4,2.4.5,0,.2-2.7.7-3.1.2-.2-.2.1-1,.1-1Z"/>
    </clipPath>
    <clipPath id="clippath-23">
      <rect class="st57" x="237.6" y="264.2" width="4.4" height="1.9"/>
    </clipPath>
    <clipPath id="clippath-24">
      <path class="st57" d="M239.1,264.4c2.5.5,1.3,1.6,1,1.5-.1-.1-.3-.9-.1-1,.2-.2,2,0,2,.2s-1.9,1.1-2.3,1c-.2-.1-.5-.8-.3-1,.1-.3,2.6-.3,2.6-.2s-3.3,1.4-3.8,1.1c-.3-.2-.4-.9-.3-1.1.3-.4,3.1-.9,3.5-.5.2.2,0,1.1,0,1.1v-1.1s.2.9,0,1.1c-.3.4-3.7.3-3.7.2s3.3-1.4,3.8-1.1c.3.2.6.8.3,1-.2.4-2.5.3-2.5.2-.1-.1,1.8-1.2,2.2-1,.3,0,.6.7.4.8-.1.3-2,.3-2.1.1,0-.2,1.1-1.3,1.4-1.3.1.1.3.9.2,1.1-.2.3-2.3.3-2.5,0-.2-.2.2-1.1.2-1.1Z"/>
    </clipPath>
    <clipPath id="clippath-25">
      <rect class="st57" x="241.1" y="264.8" width="1.9" height=".8"/>
    </clipPath>
    <clipPath id="clippath-26">
      <path class="st57" d="M243,264.8c-1.1,1.6-1.9,0-1.9,0h1.9Z"/>
    </clipPath>
    <clipPath id="clippath-27">
      <rect class="st57" x="242.9" y="265" width=".6" height=".4"/>
    </clipPath>
    <clipPath id="clippath-28">
      <path class="st57" d="M243.4,265.3c-1.1.3-.2-.2-.2-.2l.2.2Z"/>
    </clipPath>
    <clipPath id="clippath-29">
      <rect class="st57" x="242.2" y="265" width=".6" height=".5"/>
    </clipPath>
    <clipPath id="clippath-30">
      <path class="st57" d="M242.3,265c1.1.7-.1.4-.1.4v-.4Z"/>
    </clipPath>
    <clipPath id="clippath-31">
      <rect class="st57" x="242.2" y="265.4" width=".9" height=".7"/>
    </clipPath>
    <clipPath id="clippath-32">
      <path class="st57" d="M242.2,266c.4-1.3.9-.1.9-.1h-.9Z"/>
    </clipPath>
    <clipPath id="clippath-33">
      <rect class="st57" x="242.4" y="265.4" width=".9" height=".6"/>
    </clipPath>
    <clipPath id="clippath-34">
      <path class="st57" d="M242.4,265.9c.5-1.2.9,0,.9,0h-.9Z"/>
    </clipPath>
    <clipPath id="clippath-35">
      <rect class="st57" x="242.5" y="265.3" width=".9" height=".8"/>
    </clipPath>
    <clipPath id="clippath-36">
      <path class="st57" d="M242.5,266c0-1.4.9-.3.9-.3l-.9.3Z"/>
    </clipPath>
    <clipPath id="clippath-37">
      <rect class="st57" x="242.8" y="265.3" width=".1" height=".5"/>
    </clipPath>
    <clipPath id="clippath-38">
      <path class="st57" d="M242.9,265.8c0-1.1.1,0,.1,0h-.1Z"/>
    </clipPath>
    <clipPath id="clippath-39">
      <rect class="st57" x="242.8" y="265.1" width=".6" height=".5"/>
    </clipPath>
    <clipPath id="clippath-40">
      <path class="st57" d="M243.3,265.7c-1.1-.5.1-.5.1-.5v.5Z"/>
    </clipPath>
    <clipPath id="clippath-41">
      <rect class="st57" x="242.5" y="265.3" width=".8" height=".8"/>
    </clipPath>
    <clipPath id="clippath-42">
      <path class="st57" d="M242.8,266c-.8-1,.4-.7.4-.7l-.4.7Z"/>
    </clipPath>
    <clipPath id="clippath-43">
      <rect class="st57" x="242.4" y="264.9" width=".9" height=".9"/>
    </clipPath>
    <clipPath id="clippath-44">
      <path class="st57" d="M242.5,265.8c-.4-1.4.8-.8.8-.8l-.8.8Z"/>
    </clipPath>
    <clipPath id="clippath-45">
      <rect class="st57" x="235.2" y="262.7" width="4.8" height="3.7"/>
    </clipPath>
    <clipPath id="clippath-46">
      <path class="st57" d="M236.3,263.7c.8,1.6,1.1-.8,1.8-1,.4-.2,2,.9,1.9,1,0,.1-.9-.2-1.3,0-.7.3-1.4,2.7-2.1,2.6-.5,0-1.5-2.1-1.3-2.4.1-.2,1.1-.2,1.1-.2Z"/>
    </clipPath>
    <clipPath id="clippath-47">
      <rect class="st57" x="236.8" y="264" width="1.2" height=".1"/>
    </clipPath>
    <clipPath id="clippath-48">
      <path class="st57" d="M237.9,264c-2.6.1,0,0,0,0Z"/>
    </clipPath>
    <clipPath id="clippath-49">
      <rect class="st57" x="232.7" y="265.1" width=".6" height=".7"/>
    </clipPath>
    <clipPath id="clippath-50">
      <path class="st57" d="M233.2,265.8c-1.2-.4,0-.7,0-.7v.7Z"/>
    </clipPath>
    <clipPath id="clippath-51">
      <rect class="st57" x="232.5" y="265" width=".5" height=".5"/>
    </clipPath>
    <clipPath id="clippath-52">
      <path class="st57" d="M233,265.5c-1.1-.3,0-.4,0-.4v.4Z"/>
    </clipPath>
    <clipPath id="clippath-53">
      <rect class="st57" x="232.5" y="264.6" width=".7" height="1.6"/>
    </clipPath>
    <clipPath id="clippath-54">
      <path class="st57" d="M233.1,266.1c-1.4-1.1,0-1.5,0-1.5v1.5Z"/>
    </clipPath>
    <clipPath id="clippath-55">
      <rect class="st57" x="232.6" y="265" width=".6" height=".8"/>
    </clipPath>
    <clipPath id="clippath-56">
      <path class="st57" d="M233.2,265.8c-1.3-.4,0-.8,0-.8v.8Z"/>
    </clipPath>
    <clipPath id="clippath-57">
      <rect class="st57" x="232.4" y="264.7" width=".7" height=".9"/>
    </clipPath>
    <clipPath id="clippath-58">
      <path class="st57" d="M233,265.6c-1.3-.4-.1-.9-.1-.9v.9Z"/>
    </clipPath>
    <clipPath id="clippath-59">
      <rect class="st57" x="232.3" y="264.8" width=".6" height=".6"/>
    </clipPath>
    <clipPath id="clippath-60">
      <path class="st57" d="M232.9,264.8c-.4,1.2-.5,0-.5,0h.5Z"/>
    </clipPath>
    <clipPath id="clippath-61">
      <rect class="st57" x="231.9" y="265" width=".4" height=".5"/>
    </clipPath>
    <clipPath id="clippath-62">
      <path class="st57" d="M232,265c.7.9-.1.1-.1.1h.1Z"/>
    </clipPath>
    <clipPath id="clippath-63">
      <rect class="st57" x="232.3" y="264.6" width=".9" height=".6"/>
    </clipPath>
    <clipPath id="clippath-64">
      <path class="st57" d="M233.2,264.8c-1,1-.9-.2-.9-.2l.9.2Z"/>
    </clipPath>
    <clipPath id="clippath-65">
      <rect class="st57" x="232.2" y="264.7" width=".9" height=".7"/>
    </clipPath>
    <clipPath id="clippath-66">
      <path class="st57" d="M233.1,264.9c-1,1.1-.9-.2-.9-.2l.9.2Z"/>
    </clipPath>
    <clipPath id="clippath-67">
      <rect class="st57" x="232.4" y="264.4" width="1.1" height="1.1"/>
    </clipPath>
    <clipPath id="clippath-68">
      <path class="st57" d="M233.5,265.5c-1.6.2-.9-1-.9-1l.9,1Z"/>
    </clipPath>
    <clipPath id="clippath-69">
      <rect class="st57" x="232.4" y="264.2" width="1.2" height="1.9"/>
    </clipPath>
    <clipPath id="clippath-70">
      <path class="st57" d="M233.6,266.1c-2-.5-.8-1.9-.8-1.9l.8,1.9Z"/>
    </clipPath>
    <clipPath id="clippath-71">
      <rect class="st57" x="232.5" y="264.4" width=".9" height="1.6"/>
    </clipPath>
    <clipPath id="clippath-72">
      <path class="st57" d="M233.5,266c-1.8-.8-.4-1.5-.4-1.5l.4,1.5Z"/>
    </clipPath>
    <clipPath id="clippath-73">
      <rect class="st57" x="232.6" y="264.8" width=".7" height="1"/>
    </clipPath>
    <clipPath id="clippath-74">
      <path class="st57" d="M233.2,265.8c-1.3-.4-.1-1-.1-1v1Z"/>
    </clipPath>
    <clipPath id="clippath-75">
      <rect class="st57" x="232.5" y="264.8" width=".6" height="1.2"/>
    </clipPath>
    <clipPath id="clippath-76">
      <path class="st57" d="M233.1,266c-1.3-.8,0-1.2,0-1.2v1.2Z"/>
    </clipPath>
    <clipPath id="clippath-77">
      <rect class="st57" x="232.4" y="264.3" width=".9" height="1.6"/>
    </clipPath>
    <clipPath id="clippath-78">
      <path class="st57" d="M233.3,265.9c-1.8-.5-.4-1.5-.4-1.5l.4,1.5Z"/>
    </clipPath>
    <clipPath id="clippath-79">
      <rect class="st57" x="232.3" y="264.2" width="1.1" height="1.8"/>
    </clipPath>
    <clipPath id="clippath-80">
      <path class="st57" d="M233.3,266c-2-.7-.6-1.8-.6-1.8l.6,1.8Z"/>
    </clipPath>
    <clipPath id="clippath-81">
      <rect class="st57" x="232.3" y="264.3" width="1" height="1.7"/>
    </clipPath>
    <clipPath id="clippath-82">
      <path class="st57" d="M233.3,266c-1.9-.5-.6-1.6-.6-1.6l.6,1.6Z"/>
    </clipPath>
    <clipPath id="clippath-83">
      <rect class="st57" x="232.4" y="264.5" width=".9" height="1.2"/>
    </clipPath>
    <clipPath id="clippath-84">
      <path class="st57" d="M233.2,265.7c-1.5-.2-.5-1.2-.5-1.2l.5,1.2Z"/>
    </clipPath>
    <clipPath id="clippath-85">
      <rect class="st57" x="232.4" y="264.4" width=".8" height="1.3"/>
    </clipPath>
    <clipPath id="clippath-86">
      <path class="st57" d="M233.2,265.7c-1.5-.5-.3-1.3-.3-1.3l.3,1.3Z"/>
    </clipPath>
    <clipPath id="clippath-87">
      <rect class="st57" x="232.5" y="264.8" width=".2" height=".5"/>
    </clipPath>
    <clipPath id="clippath-88">
      <path class="st57" d="M232.7,264.8c-.1,1.1-.2,0-.2,0h.2Z"/>
    </clipPath>
    <clipPath id="clippath-89">
      <rect class="st57" x="232" y="264.6" width="1.1" height=".8"/>
    </clipPath>
    <clipPath id="clippath-90">
      <path class="st57" d="M233.1,264.9c-1,1.1-1.1-.3-1.1-.3l1.1.3Z"/>
    </clipPath>
    <clipPath id="clippath-91">
      <rect class="st57" x="232" y="262" width="2.6" height="3.6"/>
    </clipPath>
    <clipPath id="clippath-92">
      <path class="st57" d="M232,264.9c4.6-6.9,1.9.4.9.7-.3.1-.9-.7-.9-.7Z"/>
    </clipPath>
    <clipPath id="clippath-93">
      <rect class="st57" x="232.5" y="264.9" width=".5" height=".4"/>
    </clipPath>
    <clipPath id="clippath-94">
      <path class="st57" d="M233,265.1c-1,.4-.1-.2-.1-.2v.2Z"/>
    </clipPath>
    <clipPath id="clippath-95">
      <rect class="st57" x="232.4" y="264.9" width=".5" height=".4"/>
    </clipPath>
    <clipPath id="clippath-96">
      <path class="st57" d="M232.9,265.1c-1,.4-.1-.2-.1-.2v.2Z"/>
    </clipPath>
    <clipPath id="clippath-97">
      <rect class="st57" x="232.4" y="264.8" width="1.8" height="1.2"/>
    </clipPath>
    <clipPath id="clippath-98">
      <path class="st57" d="M232.5,264.8c3.6.2.5,1.4.1,1.1-.2-.1-.1-1.1-.1-1.1Z"/>
    </clipPath>
    <clipPath id="clippath-99">
      <rect class="st57" x="232.6" y="264.9" width=".6" height=".6"/>
    </clipPath>
    <clipPath id="clippath-100">
      <path class="st57" d="M233.1,265.5c-1.2-.3,0-.5,0-.5v.5Z"/>
    </clipPath>
    <clipPath id="clippath-101">
      <rect class="st57" x="232.4" y="264.5" width=".8" height="1.4"/>
    </clipPath>
    <clipPath id="clippath-102">
      <path class="st57" d="M233.1,265.8c-1.5-.8-.1-1.3-.1-1.3v1.3Z"/>
    </clipPath>
    <clipPath id="clippath-103">
      <rect class="st57" x="232.5" y="264.9" width=".5" height=".4"/>
    </clipPath>
    <clipPath id="clippath-104">
      <path class="st57" d="M233,265.1c-1,.4-.1-.2-.1-.2v.2Z"/>
    </clipPath>
    <clipPath id="clippath-105">
      <rect class="st57" x="232.5" y="265" width=".5" height=".4"/>
    </clipPath>
    <clipPath id="clippath-106">
      <path class="st57" d="M233,265.3c-1,.4-.1-.2-.1-.2v.2Z"/>
    </clipPath>
    <clipPath id="clippath-107">
      <rect class="st57" x="232.3" y="265.3" width=".2" height=".5"/>
    </clipPath>
    <clipPath id="clippath-108">
      <path class="st57" d="M232.4,265.8c.1-1.1.2,0,.2,0h-.2Z"/>
    </clipPath>
    <clipPath id="clippath-109">
      <rect class="st57" x="232.3" y="264.8" width=".5" height=".4"/>
    </clipPath>
    <clipPath id="clippath-110">
      <path class="st57" d="M232.8,265c-1,.4-.1-.2-.1-.2v.2Z"/>
    </clipPath>
    <clipPath id="clippath-111">
      <rect class="st57" x="232.2" y="265" width=".6" height=".5"/>
    </clipPath>
    <clipPath id="clippath-112">
      <path class="st57" d="M232.8,265.4c-1.1.3-.2-.3-.2-.3l.2.3Z"/>
    </clipPath>
    <clipPath id="clippath-113">
      <rect class="st57" x="232.4" y="265" width=".5" height=".4"/>
    </clipPath>
    <clipPath id="clippath-114">
      <path class="st57" d="M232.9,265.3c-1,.4-.1-.2-.1-.2v.2Z"/>
    </clipPath>
    <clipPath id="clippath-115">
      <rect class="st57" x="232.3" y="265" width=".5" height=".4"/>
    </clipPath>
    <clipPath id="clippath-116">
      <path class="st57" d="M232.8,265.3c-1,.4-.1-.2-.1-.2v.2Z"/>
    </clipPath>
    <clipPath id="clippath-117">
      <rect class="st57" x="232.1" y="265" width=".5" height=".4"/>
    </clipPath>
    <clipPath id="clippath-118">
      <path class="st57" d="M232.6,265.3c-1,.4-.1-.2-.1-.2v.2Z"/>
    </clipPath>
    <clipPath id="clippath-119">
      <rect class="st57" x="232" y="265" width=".5" height=".5"/>
    </clipPath>
    <clipPath id="clippath-120">
      <path class="st57" d="M232.5,265.4c-1,.3-.1-.3-.1-.3v.3Z"/>
    </clipPath>
    <clipPath id="clippath-121">
      <rect class="st57" x="232.1" y="264.8" width=".5" height=".4"/>
    </clipPath>
    <clipPath id="clippath-122">
      <path class="st57" d="M232.6,265c-1,.3-.1-.2-.1-.2v.2Z"/>
    </clipPath>
    <clipPath id="clippath-123">
      <rect class="st57" x="232" y="264.8" width=".5" height=".4"/>
    </clipPath>
    <clipPath id="clippath-124">
      <path class="st57" d="M232.5,265c-1,.3-.1-.2-.1-.2v.2Z"/>
    </clipPath>
    <clipPath id="clippath-125">
      <rect class="st57" x="232.3" y="264.8" width=".5" height=".4"/>
    </clipPath>
    <clipPath id="clippath-126">
      <path class="st57" d="M232.8,265c-1,.3-.1-.2-.1-.2v.2Z"/>
    </clipPath>
    <clipPath id="clippath-127">
      <rect class="st57" x="232.1" y="265" width=".5" height=".4"/>
    </clipPath>
    <clipPath id="clippath-128">
      <path class="st57" d="M232.6,265.3c-1,.4-.1-.2-.1-.2v.2Z"/>
    </clipPath>
    <clipPath id="clippath-129">
      <rect class="st57" x="232.1" y="264.9" width=".5" height=".4"/>
    </clipPath>
    <clipPath id="clippath-130">
      <path class="st57" d="M232.6,265.1c-1,.4-.1-.2-.1-.2v.2Z"/>
    </clipPath>
    <clipPath id="clippath-131">
      <rect class="st57" x="232" y="264.8" width=".5" height=".4"/>
    </clipPath>
    <clipPath id="clippath-132">
      <path class="st57" d="M232.5,265c-1,.4-.1-.2-.1-.2v.2Z"/>
    </clipPath>
    <clipPath id="clippath-133">
      <rect class="st57" x="232.1" y="264.8" width=".5" height=".4"/>
    </clipPath>
    <clipPath id="clippath-134">
      <path class="st57" d="M232.6,265c-1,.3-.1-.2-.1-.2v.2Z"/>
    </clipPath>
  </defs>
  <g class="st131">
    <g class="st42">
      <image class="st74" width="2625" height="1313" transform="translate(-195.8 5) scale(.3)" xlink:href="Centralino Flora White-2.png"/>
    </g>
  </g>
  <g class="st69">
    <g class="st26">
      <image class="st74" width="717" height="501" transform="translate(161.8 142.8) scale(.2)" xlink:href="Centralino Flora White-4.png"/>
    </g>
  </g>
  <g class="st119">
    <path class="st92" d="M236.9,236.3c9,0,12.8,6.2,8.8,13.2-1.9,3.3-2.7,6.5-2.5,10.2.7,15.7,1.7,31.5,1.9,47.3.2,12.1-.6,24.1-.9,36.2-.3,10.7-.7,21.5-.8,32.2,0,1.8,1.1,3.8,2.1,5.5,2.2,3.5,2.5,7.5.4,10.4-2.2,3-7.6,4.5-11.6,3.2-4.1-1.4-6.6-4.4-6.4-8.4.1-1.6,1.1-3.1,1.7-4.6,1-2.9,2.8-5.8,2.7-8.7-.3-12.7-1.4-25.4-1.6-38.2-.3-11.9,0-23.7.3-35.6.4-13.7,1.1-27.5,1.4-41.2,0-2.3-.8-5-2.1-6.9-2.4-3.3-2.9-6.5-1.2-10.1,1.7-3.6,5.1-4.2,7.8-4.4Z"/>
  </g>
  <g class="st89">
    <g class="st21">
      <path class="st92" d="M231.9,265.2h11.5v7.1h-11.5v-7.1Z"/>
    </g>
  </g>
  <g class="st81">
    <g class="st7">
      <path class="st92" d="M233.7,259.2h10.5v10.8h-10.5v-10.8Z"/>
    </g>
  </g>
  <g class="st8">
    <g class="st84">
      <path class="st92" d="M232.1,254.6h10.8v17.2h-10.8v-17.2Z"/>
    </g>
  </g>
  <g class="st34">
    <g class="st38">
      <path class="st92" d="M228.8,260.3h13.1v9.9h-13.1v-9.9Z"/>
    </g>
  </g>
  <g class="st54">
    <g class="st93">
      <path class="st92" d="M228.8,260.3h9.9v9.5h-9.9v-9.5Z"/>
    </g>
  </g>
  <g class="st126">
    <g class="st95">
      <path class="st92" d="M228.3,259.9h10.2v10h-10.2v-10Z"/>
    </g>
  </g>
  <g class="st14">
    <g class="st117">
      <path class="st92" d="M227.8,260.5h9.9v9.5h-9.9v-9.5Z"/>
    </g>
  </g>
  <g class="st9">
    <g class="st19">
      <path class="st92" d="M227.6,260.2h10.3v10.4h-10.3v-10.4Z"/>
    </g>
  </g>
  <g class="st100">
    <g class="st82">
      <path class="st92" d="M227.8,260.7h9.9v9.5h-9.9v-9.5Z"/>
    </g>
  </g>
  <g class="st6">
    <g class="st25">
      <path class="st92" d="M228.8,260.2h14v10.4h-14v-10.4Z"/>
    </g>
  </g>
  <g class="st28">
    <g class="st129">
      <path class="st92" d="M233.2,260h13.3v10.5h-13.3v-10.5Z"/>
    </g>
  </g>
  <g class="st46">
    <g class="st90">
      <path class="st92" d="M236.7,260.4h10.7v10.4h-10.7v-10.4Z"/>
    </g>
  </g>
  <g class="st47">
    <g class="st67">
      <g>
        <path class="st92" d="M237.9,260.7h9.9v9.5h-9.9v-9.5Z"/>
        <path class="st92" d="M237.9,260.7h9.9v9.5h-9.9v-9.5Z"/>
        <path class="st92" d="M237.9,260.7h9.9v9.5h-9.9v-9.5Z"/>
      </g>
    </g>
  </g>
  <g class="st120">
    <g class="st97">
      <path class="st92" d="M237.8,260.7h10v9.4h-10v-9.4Z"/>
    </g>
  </g>
  <g class="st11">
    <g class="st106">
      <path class="st92" d="M237.8,260.3h9.6v10.1h-9.6v-10.1Z"/>
    </g>
  </g>
  <g class="st15">
    <g class="st2">
      <path class="st92" d="M238.1,260.3h9.6v10.1h-9.6v-10.1Z"/>
    </g>
  </g>
  <g class="st63">
    <g class="st61">
      <path class="st92" d="M238.1,260.3h9.7v10.2h-9.7v-10.2Z"/>
    </g>
  </g>
  <g class="st123">
    <g class="st5">
      <path class="st92" d="M238.5,260.3h9v10h-9v-10Z"/>
    </g>
  </g>
  <g class="st112">
    <g class="st79">
      <path class="st92" d="M237.7,260.8h10.1v9.4h-10.1v-9.4Z"/>
    </g>
  </g>
  <g class="st86">
    <g class="st39">
      <path class="st92" d="M237.5,260.8h10.1v9.6h-10.1v-9.6Z"/>
    </g>
  </g>
  <g class="st43">
    <g class="st137">
      <path class="st92" d="M237.6,260.2h10.2v10.1h-10.2v-10.1Z"/>
    </g>
  </g>
  <g class="st73">
    <g class="st78">
      <path class="st92" d="M230.8,258.3h13.6v12.5h-13.6v-12.5Z"/>
    </g>
  </g>
  <g class="st20">
    <g class="st65">
      <path class="st92" d="M230.9,259.7h11.5v9h-11.5v-9Z"/>
    </g>
  </g>
  <g class="st122">
    <g class="st94">
      <path class="st92" d="M227.6,260.8h10v9.4h-10v-9.4Z"/>
    </g>
  </g>
  <g class="st1">
    <g class="st85">
      <path class="st92" d="M227.5,260.7h10v9.3h-10v-9.3Z"/>
    </g>
  </g>
  <g class="st111">
    <g class="st30">
      <path class="st92" d="M227.3,260.2h10.3v10.3h-10.3v-10.3Z"/>
    </g>
  </g>
  <g class="st107">
    <g class="st70">
      <path class="st92" d="M227.6,260.7h10.1v9.5h-10.1v-9.5Z"/>
    </g>
  </g>
  <g class="st55">
    <g class="st124">
      <path class="st92" d="M227.3,260.3h10.1v9.6h-10.1v-9.6Z"/>
    </g>
  </g>
  <g class="st41">
    <g class="st51">
      <path class="st92" d="M228,260.4h9.3v10h-9.3v-10Z"/>
    </g>
  </g>
  <g class="st16">
    <g class="st139">
      <path class="st92" d="M227.5,260.7h9.6v9.6h-9.6v-9.6Z"/>
    </g>
  </g>
  <g class="st128">
    <g class="st44">
      <path class="st92" d="M228,260.2h9.6v10.2h-9.6v-10.2Z"/>
    </g>
  </g>
  <g class="st135">
    <g class="st31">
      <path class="st92" d="M227.9,260.3h9.6v10.2h-9.6v-10.2Z"/>
    </g>
  </g>
  <g class="st87">
    <g class="st133">
      <path class="st92" d="M227.5,260.1h10.3v10.3h-10.3v-10.3Z"/>
    </g>
  </g>
  <g class="st140">
    <g class="st37">
      <path class="st92" d="M227.3,259.9h10.7v10.7h-10.7v-10.7Z"/>
    </g>
  </g>
  <g class="st22">
    <g class="st104">
      <path class="st92" d="M227.4,260.1h10.4v10.3h-10.4v-10.3Z"/>
    </g>
  </g>
  <g class="st110">
    <g class="st88">
      <path class="st92" d="M227.5,260.4h10.2v9.9h-10.2v-9.9Z"/>
    </g>
  </g>
  <g class="st13">
    <g class="st0">
      <path class="st92" d="M227.4,260.4h10.2v10h-10.2v-10Z"/>
    </g>
  </g>
  <g class="st99">
    <g class="st103">
      <path class="st92" d="M227.3,260h10.5v10.3h-10.5v-10.3Z"/>
    </g>
  </g>
  <g class="st12">
    <g class="st10">
      <path class="st92" d="M227.1,259.9h10.6v10.5h-10.6v-10.5Z"/>
    </g>
  </g>
  <g class="st114">
    <g class="st29">
      <path class="st92" d="M227.2,260h10.6v10.4h-10.6v-10.4Z"/>
    </g>
  </g>
  <g class="st134">
    <g class="st105">
      <path class="st92" d="M227.4,260.1h10.3v10h-10.3v-10Z"/>
    </g>
  </g>
  <g class="st58">
    <g class="st127">
      <path class="st92" d="M227.3,260h10.4v10.1h-10.4v-10.1Z"/>
    </g>
  </g>
  <g class="st132">
    <g class="st56">
      <path class="st92" d="M228.1,260.4h9.1v10h-9.1v-10Z"/>
    </g>
  </g>
  <g class="st77">
    <g class="st72">
      <path class="st92" d="M227.6,260.2h10v10.3h-10v-10.3Z"/>
    </g>
  </g>
  <g class="st91">
    <g class="st62">
      <path class="st92" d="M227.6,253.5h13.3v16.5h-13.3v-16.5Z"/>
    </g>
  </g>
  <g class="st53">
    <g class="st130">
      <g>
        <path class="st92" d="M227.6,260.5h9.9v9.5h-9.9v-9.5Z"/>
        <path class="st92" d="M227.6,260.5h9.9v9.5h-9.9v-9.5Z"/>
        <path class="st92" d="M227.6,260.5h9.9v9.5h-9.9v-9.5Z"/>
        <path class="st92" d="M227.6,260.5h9.9v9.5h-9.9v-9.5Z"/>
        <path class="st92" d="M227.6,260.5h9.9v9.5h-9.9v-9.5Z"/>
      </g>
    </g>
  </g>
  <g class="st83">
    <g class="st80">
      <g>
        <path class="st92" d="M227.5,260.5h9.9v9.5h-9.9v-9.5Z"/>
        <path class="st92" d="M227.5,260.5h9.9v9.5h-9.9v-9.5Z"/>
        <path class="st92" d="M227.5,260.5h9.9v9.5h-9.9v-9.5Z"/>
      </g>
    </g>
  </g>
  <g class="st96">
    <g class="st64">
      <path class="st92" d="M228.1,260.4h12.4v10h-12.4v-10Z"/>
    </g>
  </g>
  <g class="st76">
    <g class="st18">
      <path class="st92" d="M227.5,260.5h10v9.3h-10v-9.3Z"/>
    </g>
  </g>
  <g class="st45">
    <g class="st36">
      <path class="st92" d="M227.2,260.1h10.3v10.2h-10.3v-10.2Z"/>
    </g>
  </g>
  <g class="st27">
    <g class="st66">
      <path class="st92" d="M227.6,260.5h9.9v9.5h-9.9v-9.5Z"/>
    </g>
  </g>
  <g class="st60">
    <g class="st115">
      <g>
        <path class="st92" d="M227.6,260.7h9.9v9.5h-9.9v-9.5Z"/>
        <path class="st92" d="M227.6,260.7h9.9v9.5h-9.9v-9.5Z"/>
        <path class="st92" d="M227.6,260.7h9.9v9.5h-9.9v-9.5Z"/>
        <path class="st92" d="M227.6,260.7h9.9v9.5h-9.9v-9.5Z"/>
      </g>
    </g>
  </g>
  <g class="st3">
    <g class="st71">
      <path class="st92" d="M228,260.3h9.1v10h-9.1v-10Z"/>
    </g>
  </g>
  <g class="st48">
    <g class="st75">
      <path class="st92" d="M227.4,260.4h9.9v9.5h-9.9v-9.5Z"/>
    </g>
  </g>
  <g class="st59">
    <g class="st98">
      <path class="st92" d="M227.3,260.7h9.9v9.5h-9.9v-9.5Z"/>
    </g>
  </g>
  <g class="st52">
    <g class="st32">
      <path class="st92" d="M227.5,260.7h9.9v9.5h-9.9v-9.5Z"/>
    </g>
  </g>
  <g class="st138">
    <g class="st17">
      <path class="st92" d="M227.4,260.7h9.9v9.5h-9.9v-9.5Z"/>
    </g>
  </g>
  <g class="st102">
    <g class="st68">
      <path class="st92" d="M227.2,260.7h9.9v9.5h-9.9v-9.5Z"/>
    </g>
  </g>
  <g class="st118">
    <g class="st24">
      <path class="st92" d="M227.1,260.7h9.9v9.5h-9.9v-9.5Z"/>
    </g>
  </g>
  <g class="st35">
    <g class="st113">
      <path class="st92" d="M227.2,260.4h9.9v9.5h-9.9v-9.5Z"/>
    </g>
  </g>
  <g class="st108">
    <g class="st125">
      <path class="st92" d="M227.1,260.4h9.9v9.5h-9.9v-9.5Z"/>
    </g>
  </g>
  <g class="st116">
    <g class="st23">
      <g>
        <path class="st92" d="M227.4,260.4h9.9v9.5h-9.9v-9.5Z"/>
        <path class="st92" d="M227.4,260.4h9.9v9.5h-9.9v-9.5Z"/>
      </g>
    </g>
  </g>
  <g class="st101">
    <g class="st33">
      <path class="st92" d="M227.2,260.7h9.9v9.5h-9.9v-9.5Z"/>
    </g>
  </g>
  <g class="st109">
    <g class="st50">
      <path class="st92" d="M227.2,260.5h9.9v9.5h-9.9v-9.5Z"/>
    </g>
  </g>
  <g class="st121">
    <g class="st40">
      <path class="st92" d="M227.1,260.4h9.9v9.5h-9.9v-9.5Z"/>
    </g>
  </g>
  <g class="st4">
    <g class="st136">
      <g>
        <path class="st92" d="M227.2,260.4h9.9v9.5h-9.9v-9.5Z"/>
        <path class="st92" d="M227.2,260.4h9.9v9.5h-9.9v-9.5Z"/>
      </g>
    </g>
  </g>
  <path class="st49" d="M368.3,188.4c-7.4,0-14.2-1.6-20.2-4.8-6-3.2-10.7-7.7-14.2-13.5-3.4-5.7-5.2-12.2-5.2-19.4s1.7-13.7,5.2-19.4c3.4-5.7,8.2-10.2,14.2-13.5,6-3.2,12.8-4.9,20.3-4.9s12,1.1,17.1,3.3c5.1,2.2,9.4,5.4,12.9,9.6l-10.9,10c-4.9-5.7-11-8.5-18.3-8.5s-8.6,1-12.1,3c-3.5,2-6.3,4.7-8.3,8.3-2,3.5-3,7.6-3,12.1s1,8.5,3,12.1c2,3.5,4.8,6.3,8.3,8.3,3.5,2,7.6,3,12.1,3,7.3,0,13.4-2.9,18.3-8.6l10.9,10c-3.5,4.2-7.8,7.5-12.9,9.7-5.1,2.2-10.9,3.3-17.2,3.3Z"/>
  <path class="st49" d="M461.6,159.3c0,.2-.1,1.7-.3,4.4h-42.4c.8,3.5,2.6,6.2,5.4,8.3,2.8,2,6.4,3,10.6,3s5.5-.4,7.8-1.3c2.3-.9,4.4-2.3,6.3-4.1l8.6,9.4c-5.3,6-13,9.1-23.1,9.1s-11.9-1.2-16.8-3.7c-4.9-2.5-8.6-5.9-11.3-10.3-2.6-4.4-4-9.4-4-14.9s1.3-10.4,3.9-14.9c2.6-4.4,6.2-7.9,10.8-10.3,4.6-2.5,9.6-3.7,15.3-3.7s10.5,1.2,14.9,3.5c4.4,2.4,7.9,5.8,10.5,10.2,2.5,4.4,3.8,9.5,3.8,15.4ZM432.5,142.5c-3.7,0-6.8,1.1-9.3,3.1-2.5,2.1-4,4.9-4.6,8.5h27.6c-.6-3.5-2.1-6.4-4.6-8.5-2.5-2.1-5.6-3.2-9.2-3.2Z"/>
  <path class="st49" d="M506.6,130.2c6.9,0,12.5,2.1,16.8,6.3,4.3,4.2,6.4,10.4,6.4,18.6v32.1h-16.3v-29.6c0-4.4-1-7.8-2.9-10-1.9-2.2-4.8-3.3-8.5-3.3s-7.4,1.3-9.8,3.8c-2.4,2.5-3.6,6.3-3.6,11.3v27.7h-16.3v-56.1h15.5v6.6c2.2-2.4,4.8-4.2,8-5.5,3.2-1.3,6.7-1.9,10.5-1.9Z"/>
  <path class="st49" d="M580.7,184.5c-1.6,1.2-3.6,2.1-5.9,2.7-2.3.6-4.8.9-7.4.9-6.7,0-11.8-1.7-15.5-5.1-3.7-3.4-5.5-8.4-5.5-15v-23h-8.6v-12.5h8.6v-13.7h16.3v13.7h14v12.5h-14v22.8c0,2.4.6,4.2,1.8,5.5,1.2,1.3,2.9,1.9,5.2,1.9s4.8-.7,6.6-2.1l4.4,11.5Z"/>
  <path class="st49" d="M605.4,138.5c1.9-2.7,4.6-4.8,7.9-6.1,3.3-1.4,7.1-2.1,11.4-2.1v15c-1.8-.1-3-.2-3.7-.2-4.7,0-8.3,1.3-10.9,3.9-2.6,2.6-4,6.5-4,11.7v26.5h-16.3v-56.1h15.5v7.4Z"/>
  <path class="st49" d="M656.7,130.2c8.7,0,15.4,2.1,20,6.2,4.7,4.1,7,10.4,7,18.7v32h-15.2v-7c-3.1,5.2-8.8,7.8-17.1,7.8s-8-.7-11.2-2.2-5.6-3.5-7.3-6c-1.7-2.6-2.5-5.5-2.5-8.8,0-5.2,2-9.3,5.9-12.3,3.9-3,10-4.5,18.2-4.5h12.9c0-3.5-1.1-6.3-3.3-8.2-2.2-1.9-5.4-2.9-9.7-2.9s-5.9.5-8.8,1.4c-2.9.9-5.3,2.2-7.4,3.8l-5.8-11.4c3.1-2.2,6.7-3.8,11-5,4.3-1.2,8.7-1.8,13.2-1.8ZM655.4,177.1c2.8,0,5.2-.6,7.4-1.9,2.2-1.3,3.7-3.2,4.6-5.7v-5.7h-11.2c-6.7,0-10,2.2-10,6.6s.8,3.7,2.4,5c1.6,1.2,3.9,1.8,6.7,1.8Z"/>
  <path class="st49" d="M698.4,109.8h16.3v77.4h-16.3v-77.4Z"/>
  <path class="st49" d="M729.8,131.1h16.3v56.1h-16.3v-56.1ZM737.9,123.3c-3,0-5.4-.9-7.3-2.6-1.9-1.8-2.8-3.9-2.8-6.5s.9-4.7,2.8-6.5c1.9-1.7,4.3-2.6,7.3-2.6s5.4.8,7.3,2.5,2.8,3.8,2.8,6.3-.9,5-2.8,6.7c-1.9,1.8-4.3,2.7-7.3,2.7Z"/>
  <path class="st49" d="M795.3,130.2c6.9,0,12.5,2.1,16.8,6.3,4.3,4.2,6.4,10.4,6.4,18.6v32.1h-16.3v-29.6c0-4.4-1-7.8-2.9-10-1.9-2.2-4.8-3.3-8.5-3.3s-7.4,1.3-9.8,3.8c-2.4,2.5-3.6,6.3-3.6,11.3v27.7h-16.3v-56.1h15.5v6.6c2.2-2.4,4.8-4.2,8-5.5,3.2-1.3,6.7-1.9,10.5-1.9Z"/>
  <path class="st49" d="M860.5,188c-5.9,0-11.2-1.2-15.9-3.7-4.7-2.5-8.4-5.9-11-10.3-2.6-4.4-4-9.4-4-14.9s1.3-10.5,4-14.9c2.6-4.4,6.3-7.8,11-10.3,4.7-2.5,10-3.7,15.9-3.7s11.2,1.2,15.9,3.7c4.7,2.5,8.3,5.9,10.9,10.3,2.6,4.4,4,9.3,4,14.9s-1.3,10.5-4,14.9c-2.6,4.4-6.3,7.8-10.9,10.3-4.7,2.5-9.9,3.7-15.9,3.7ZM860.5,174.7c4.2,0,7.6-1.4,10.3-4.2,2.7-2.8,4-6.6,4-11.3s-1.3-8.5-4-11.3c-2.7-2.8-6.1-4.2-10.3-4.2s-7.6,1.4-10.3,4.2c-2.7,2.8-4.1,6.6-4.1,11.3s1.4,8.5,4.1,11.3c2.7,2.8,6.1,4.2,10.3,4.2Z"/>
  <path class="st49" d="M949.6,127.7v19.3h33.8v13.6h-33.8v26.6h-16.9v-73h55.1v13.6h-38.3Z"/>
  <path class="st49" d="M998.2,109.8h16.3v77.4h-16.3v-77.4Z"/>
  <path class="st49" d="M1056.3,188c-5.9,0-11.2-1.2-15.9-3.7-4.7-2.5-8.4-5.9-11-10.3-2.6-4.4-4-9.4-4-14.9s1.3-10.5,4-14.9c2.6-4.4,6.3-7.8,11-10.3,4.7-2.5,10-3.7,15.9-3.7s11.2,1.2,15.9,3.7c4.7,2.5,8.3,5.9,10.9,10.3,2.6,4.4,4,9.3,4,14.9s-1.3,10.5-4,14.9c-2.6,4.4-6.3,7.8-10.9,10.3-4.7,2.5-9.9,3.7-15.9,3.7ZM1056.3,174.7c4.2,0,7.6-1.4,10.3-4.2,2.7-2.8,4-6.6,4-11.3s-1.3-8.5-4-11.3c-2.7-2.8-6.1-4.2-10.3-4.2s-7.6,1.4-10.3,4.2c-2.7,2.8-4.1,6.6-4.1,11.3s1.4,8.5,4.1,11.3c2.7,2.8,6.1,4.2,10.3,4.2Z"/>
  <path class="st49" d="M1113.4,138.5c1.9-2.7,4.6-4.8,7.9-6.1,3.3-1.4,7.1-2.1,11.4-2.1v15c-1.8-.1-3-.2-3.7-.2-4.7,0-8.3,1.3-10.9,3.9-2.6,2.6-4,6.5-4,11.7v26.5h-16.3v-56.1h15.5v7.4Z"/>
  <path class="st49" d="M1164.7,130.2c8.7,0,15.4,2.1,20,6.2,4.7,4.1,7,10.4,7,18.7v32h-15.2v-7c-3.1,5.2-8.8,7.8-17.1,7.8s-8-.7-11.2-2.2-5.6-3.5-7.3-6c-1.7-2.6-2.5-5.5-2.5-8.8,0-5.2,2-9.3,5.9-12.3,3.9-3,10-4.5,18.2-4.5h12.9c0-3.5-1.1-6.3-3.3-8.2-2.2-1.9-5.4-2.9-9.7-2.9s-5.9.5-8.8,1.4c-2.9.9-5.3,2.2-7.4,3.8l-5.8-11.4c3.1-2.2,6.7-3.8,11-5,4.3-1.2,8.7-1.8,13.2-1.8ZM1163.5,177.1c2.8,0,5.2-.6,7.4-1.9,2.2-1.3,3.7-3.2,4.6-5.7v-5.7h-11.2c-6.7,0-10,2.2-10,6.6s.8,3.7,2.4,5c1.6,1.2,3.9,1.8,6.7,1.8Z"/>
  <path class="st49" d="M337.3,238.7h-7.3v-40.3h10.4l10.2,29.6h.6l10.1-29.6h10.2v40.3h-7.5v-26.6h-.7c0-.1-9.3,26.6-9.3,26.6h-6.6l-9.3-26.8h-.7v26.8Z"/>
  <path class="st49" d="M395.5,239.3c-1.9,0-3.6-.4-5.1-1.1-1.4-.7-2.5-1.8-3.3-3.2-.8-1.4-1.1-3.1-1.1-5s.4-3.3,1.1-4.5c.8-1.2,2-2.2,3.6-3,1.6-.8,3.7-1.4,6.4-1.8,1.8-.3,3.2-.6,4.1-1,.9-.4,1.6-.8,1.9-1.2.3-.4.5-1,.5-1.7,0-1-.3-1.7-1-2.2-.7-.5-1.8-.8-3.4-.8s-3.3.4-4.8,1.1c-1.5.8-2.9,1.7-4,3h-.5l-3.2-4.8c1.5-1.7,3.4-3,5.6-4,2.2-1,4.7-1.4,7.3-1.4,4,0,6.9.9,8.7,2.6,1.8,1.7,2.7,4.1,2.7,7.3v13.2c0,1.4.6,2,1.8,2s.9,0,1.4-.3h.4c0,.1.6,5.4.6,5.4-.4.3-1,.5-1.8.7-.8.2-1.6.3-2.5.3-1.8,0-3.2-.3-4.3-1-1-.7-1.7-1.8-2.2-3.3h-.6c-1.5,3.1-4.3,4.7-8.3,4.7ZM397.9,233.5c1.8,0,3.2-.6,4.2-1.8,1.1-1.2,1.6-2.8,1.6-5v-3.1h-.5c-.5.3-1.1.6-1.8.8-.7.3-1.8.5-3.2.7-1.7.3-2.8.8-3.6,1.4-.7.7-1.1,1.6-1.1,2.9s.4,2.3,1.1,3c.8.7,1.9,1,3.2,1Z"/>
  <path class="st49" d="M426.9,238.7v-30.4h7.3v4.5h.6c1.9-3.3,5-5,9.2-5s6.1,1,7.7,2.9c1.7,1.9,2.5,4.7,2.5,8.3v19.8h-7.6v-18.8c0-2-.4-3.5-1.2-4.4-.8-.9-2.1-1.4-3.9-1.4s-3.9.7-5.1,2.1c-1.2,1.4-1.8,3.6-1.8,6.7v15.8h-7.6Z"/>
  <path class="st49" d="M473.1,204.6c-1.4,0-2.5-.4-3.4-1.3-.9-.8-1.3-1.9-1.3-3.3s.4-2.4,1.3-3.2c.9-.8,2-1.3,3.4-1.3s1.7.2,2.4.6c.7.4,1.3.9,1.7,1.6.4.7.6,1.4.6,2.3s-.2,1.6-.6,2.3c-.4.7-.9,1.2-1.7,1.6-.7.4-1.5.6-2.4.6ZM469.3,238.7v-30.4h7.6v30.4h-7.6Z"/>
  <path class="st49" d="M500.8,239.3c-2.7,0-4.8-.7-6.3-2.2-1.4-1.5-2.2-3.7-2.2-6.8v-34.3h7.6v33.9c0,1.9.8,2.8,2.3,2.8s.9,0,1.4-.2h.4c0,.1.7,6,.7,6-.4.2-1,.4-1.7.5-.7.1-1.5.2-2.3.2Z"/>
  <path class="st49" d="M524.3,239.3c-1.9,0-3.6-.4-5.1-1.1-1.4-.7-2.5-1.8-3.3-3.2-.8-1.4-1.1-3.1-1.1-5s.4-3.3,1.1-4.5c.8-1.2,2-2.2,3.6-3,1.6-.8,3.7-1.4,6.4-1.8,1.8-.3,3.2-.6,4.1-1,.9-.4,1.6-.8,1.9-1.2.3-.4.5-1,.5-1.7,0-1-.3-1.7-1-2.2-.7-.5-1.8-.8-3.4-.8s-3.3.4-4.8,1.1c-1.5.8-2.9,1.7-4,3h-.5l-3.2-4.8c1.5-1.7,3.4-3,5.6-4,2.2-1,4.7-1.4,7.3-1.4,4,0,6.9.9,8.7,2.6,1.8,1.7,2.7,4.1,2.7,7.3v13.2c0,1.4.6,2,1.8,2s.9,0,1.4-.3h.4c0,.1.6,5.4.6,5.4-.4.3-1,.5-1.8.7-.8.2-1.6.3-2.5.3-1.8,0-3.2-.3-4.3-1-1-.7-1.7-1.8-2.2-3.3h-.6c-1.5,3.1-4.3,4.7-8.3,4.7ZM526.7,233.5c1.8,0,3.2-.6,4.2-1.8,1.1-1.2,1.6-2.8,1.6-5v-3.1h-.5c-.5.3-1.1.6-1.8.8-.7.3-1.8.5-3.2.7-1.7.3-2.8.8-3.6,1.4-.7.7-1.1,1.6-1.1,2.9s.4,2.3,1.1,3c.8.7,1.9,1,3.2,1Z"/>
  <path class="st49" d="M593.5,239.3c-3.7,0-7-.8-9.8-2.3-2.8-1.6-5.1-3.9-6.6-7-1.6-3.1-2.4-6.9-2.4-11.5s.8-8.4,2.4-11.5c1.6-3.1,3.8-5.4,6.6-7s6.1-2.3,9.8-2.3,7.2.8,9.9,2.3c2.7,1.5,4.7,3.8,5.8,6.9l-5.8,3.5h-.7c-.9-2.1-2-3.6-3.5-4.5-1.5-.9-3.4-1.4-5.7-1.4-3.3,0-6,1.1-7.8,3.3-1.9,2.2-2.8,5.7-2.8,10.5s.9,8.3,2.8,10.5c1.9,2.2,4.5,3.3,7.8,3.3,5.2,0,8.4-2.5,9.6-7.6h.7l5.9,3.1c-1.1,3.8-3,6.7-5.6,8.6-2.7,1.9-6.2,2.9-10.5,2.9Z"/>
  <path class="st49" d="M647.9,225.2h-19.5c.2,2.6,1,4.6,2.3,5.8,1.3,1.2,3,1.8,5.3,1.8s3.2-.3,4.3-1c1.1-.7,2-1.6,2.6-3h.6l5.1,3.3c-1,2.1-2.5,3.9-4.5,5.2-2,1.3-4.7,2-8,2s-5.9-.6-8.1-1.8c-2.3-1.2-4-3-5.3-5.3-1.2-2.4-1.9-5.2-1.9-8.6s.7-6.4,2-8.7c1.3-2.4,3.1-4.1,5.3-5.3,2.2-1.2,4.7-1.8,7.5-1.8,4.3,0,7.6,1.1,9.9,3.4,2.3,2.3,3.4,5.6,3.4,10s0,2.9-.2,3.7l-.6.3ZM641.3,220.3c0-2.3-.6-4-1.6-5.1-1-1.1-2.5-1.6-4.4-1.6-3.9,0-6.1,2.2-6.8,6.6h12.8Z"/>
  <path class="st49" d="M662.1,238.7v-30.4h7.3v4.5h.6c1.9-3.3,5-5,9.2-5s6.1,1,7.7,2.9c1.7,1.9,2.5,4.7,2.5,8.3v19.8h-7.6v-18.8c0-2-.4-3.5-1.2-4.4-.8-.9-2.1-1.4-3.9-1.4s-3.9.7-5.1,2.1c-1.2,1.4-1.8,3.6-1.8,6.7v15.8h-7.6Z"/>
  <path class="st49" d="M720.9,231.4l2,5.6c-.8.7-1.9,1.2-3.1,1.6s-2.7.6-4.3.6c-3.3,0-5.8-.9-7.5-2.7s-2.6-4.4-2.6-7.8v-14.5h-4.6v-6.1h4.6v-5.9l7.6-1.3v7.2h8.6v6.1h-8.6v13.9c0,1.5.3,2.6.9,3.3.6.7,1.5,1,2.8,1s2.5-.4,3.5-1.1h.6Z"/>
  <path class="st49" d="M734.8,238.7v-30.4h7.4v4.5h.6c.7-1.6,1.7-2.8,2.9-3.6,1.2-.8,2.6-1.2,4.4-1.2s3,.3,3.9.9l-1.3,6.6h-.6c-.5,0-1-.2-1.4-.3-.5,0-1-.1-1.7-.1-2.1,0-3.8.8-4.9,2.3-1.1,1.5-1.7,3.9-1.7,7.2v14.2h-7.6Z"/>
  <path class="st49" d="M772.4,239.3c-1.9,0-3.6-.4-5.1-1.1-1.4-.7-2.5-1.8-3.3-3.2-.8-1.4-1.1-3.1-1.1-5s.4-3.3,1.1-4.5c.8-1.2,2-2.2,3.6-3,1.6-.8,3.7-1.4,6.4-1.8,1.8-.3,3.2-.6,4.1-1,.9-.4,1.6-.8,1.9-1.2.3-.4.5-1,.5-1.7,0-1-.3-1.7-1-2.2-.7-.5-1.8-.8-3.4-.8s-3.3.4-4.8,1.1c-1.5.8-2.9,1.7-4,3h-.5l-3.2-4.8c1.5-1.7,3.4-3,5.6-4,2.2-1,4.7-1.4,7.3-1.4,4,0,6.9.9,8.7,2.6,1.8,1.7,2.7,4.1,2.7,7.3v13.2c0,1.4.6,2,1.8,2s.9,0,1.4-.3h.4c0,.1.6,5.4.6,5.4-.4.3-1,.5-1.8.7-.8.2-1.6.3-2.5.3-1.8,0-3.2-.3-4.3-1-1-.7-1.7-1.8-2.2-3.3h-.6c-1.5,3.1-4.3,4.7-8.3,4.7ZM774.8,233.5c1.8,0,3.2-.6,4.2-1.8,1.1-1.2,1.6-2.8,1.6-5v-3.1h-.5c-.5.3-1.1.6-1.8.8-.7.3-1.8.5-3.2.7-1.7.3-2.8.8-3.6,1.4-.7.7-1.1,1.6-1.1,2.9s.4,2.3,1.1,3c.8.7,1.9,1,3.2,1Z"/>
  <path class="st49" d="M812,239.3c-2.7,0-4.8-.7-6.3-2.2-1.4-1.5-2.2-3.7-2.2-6.8v-34.3h7.6v33.9c0,1.9.8,2.8,2.3,2.8s.9,0,1.4-.2h.4c0,.1.7,6,.7,6-.4.2-1,.4-1.7.5-.7.1-1.5.2-2.3.2Z"/>
  <path class="st49" d="M865.2,239.3c-5.6,0-9.7-1.3-12.4-4-2.7-2.6-4-6.5-4-11.7v-25.2h7.8v25.1c0,2.9.7,5.2,2.1,6.6,1.4,1.5,3.6,2.2,6.5,2.2,5.7,0,8.6-2.9,8.6-8.8v-25.1h7.8v25.2c0,5.2-1.3,9.1-4,11.7-2.7,2.6-6.8,4-12.3,4Z"/>
  <path class="st49" d="M897.8,238.7v-30.4h7.3v4.5h.6c1.9-3.3,5-5,9.2-5s6.1,1,7.7,2.9c1.7,1.9,2.5,4.7,2.5,8.3v19.8h-7.6v-18.8c0-2-.4-3.5-1.2-4.4-.8-.9-2.1-1.4-3.9-1.4s-3.9.7-5.1,2.1c-1.2,1.4-1.8,3.6-1.8,6.7v15.8h-7.6Z"/>
  <path class="st49" d="M944.1,204.6c-1.4,0-2.5-.4-3.4-1.3-.9-.8-1.3-1.9-1.3-3.3s.4-2.4,1.3-3.2c.9-.8,2-1.3,3.4-1.3s1.7.2,2.4.6c.7.4,1.3.9,1.7,1.6.4.7.6,1.4.6,2.3s-.2,1.6-.6,2.3c-.4.7-.9,1.2-1.7,1.6-.7.4-1.5.6-2.4.6ZM940.2,238.7v-30.4h7.6v30.4h-7.6Z"/>
  <path class="st49" d="M980,238.7h-9.1l-11.3-30.4h8l7.5,21.7h.6l7.6-21.7h7.8l-11.2,30.4Z"/>
  <path class="st49" d="M1028.1,225.2h-19.5c.2,2.6,1,4.6,2.3,5.8,1.3,1.2,3,1.8,5.3,1.8s3.2-.3,4.3-1c1.1-.7,2-1.6,2.6-3h.6l5.1,3.3c-1,2.1-2.5,3.9-4.5,5.2-2,1.3-4.7,2-8,2s-5.9-.6-8.1-1.8c-2.3-1.2-4-3-5.3-5.3-1.2-2.4-1.9-5.2-1.9-8.6s.7-6.4,2-8.7c1.3-2.4,3.1-4.1,5.3-5.3,2.2-1.2,4.7-1.8,7.5-1.8,4.3,0,7.6,1.1,9.9,3.4,2.3,2.3,3.4,5.6,3.4,10s0,2.9-.2,3.7l-.6.3ZM1021.5,220.3c0-2.3-.6-4-1.6-5.1-1-1.1-2.5-1.6-4.4-1.6-3.9,0-6.1,2.2-6.8,6.6h12.8Z"/>
  <path class="st49" d="M1042.3,238.7v-30.4h7.4v4.5h.6c.7-1.6,1.7-2.8,2.9-3.6,1.2-.8,2.6-1.2,4.4-1.2s3,.3,3.9.9l-1.3,6.6h-.6c-.5,0-1-.2-1.4-.3-.5,0-1-.1-1.7-.1-2.1,0-3.8.8-4.9,2.3-1.1,1.5-1.7,3.9-1.7,7.2v14.2h-7.6Z"/>
  <path class="st49" d="M1082.8,239.3c-2.1,0-4-.2-5.7-.7-1.7-.5-3.2-1.2-4.4-2-1.2-.9-2.1-1.8-2.7-3l4.3-4.6h.6c1,1.3,2.2,2.4,3.6,3,1.4.7,2.9,1,4.5,1s2.6-.3,3.4-.8c.8-.5,1.1-1.3,1.1-2.3s-.3-1.4-.8-1.9c-.5-.5-1.4-.9-2.6-1.2l-4-1c-3-.7-5.2-1.8-6.6-3.3-1.4-1.5-2.1-3.4-2.1-5.6s.5-3.5,1.4-4.9c1-1.4,2.3-2.5,4.1-3.2,1.8-.7,3.8-1.1,6.1-1.1s5,.4,6.8,1.2c1.8.8,3.2,1.8,4.2,3.2l-4.1,4.4h-.6c-.8-.9-1.8-1.6-2.9-2.1-1.1-.4-2.2-.7-3.5-.7-3,0-4.5.9-4.5,2.8s.3,1.4.8,1.9c.6.5,1.6.9,3,1.2l3.8.8c3.1.7,5.3,1.7,6.8,3.2,1.4,1.5,2.1,3.4,2.1,5.9s-.5,3.6-1.4,5.1c-.9,1.5-2.3,2.6-4.1,3.4-1.8.8-3.9,1.2-6.4,1.2Z"/>
  <path class="st49" d="M1111.6,204.6c-1.4,0-2.5-.4-3.4-1.3-.9-.8-1.3-1.9-1.3-3.3s.4-2.4,1.3-3.2c.9-.8,2-1.3,3.4-1.3s1.7.2,2.4.6c.7.4,1.3.9,1.7,1.6.4.7.6,1.4.6,2.3s-.2,1.6-.6,2.3c-.4.7-.9,1.2-1.7,1.6-.7.4-1.5.6-2.4.6ZM1107.8,238.7v-30.4h7.6v30.4h-7.6Z"/>
  <path class="st49" d="M1147.6,231.4l2,5.6c-.8.7-1.9,1.2-3.1,1.6s-2.7.6-4.3.6c-3.3,0-5.8-.9-7.5-2.7s-2.6-4.4-2.6-7.8v-14.5h-4.6v-6.1h4.6v-5.9l7.6-1.3v7.2h8.6v6.1h-8.6v13.9c0,1.5.3,2.6.9,3.3.6.7,1.5,1,2.8,1s2.5-.4,3.5-1.1h.6Z"/>
  <path class="st49" d="M1163.8,251.6c-1.3,0-2.5-.1-3.5-.3-1.1-.2-1.9-.5-2.6-.8l1.2-6.2.5-.2c.5.2,1,.4,1.7.6.7.2,1.4.2,2.1.2,1.2,0,2.2-.2,3.1-.5.8-.3,1.5-.9,2.1-1.6.6-.7,1.1-1.8,1.5-3.1l-12.1-31.5h8l7.6,21.1h.7l7.4-21.1h7.8l-12.2,32.3c-1,2.6-2,4.7-3.2,6.3-1.2,1.6-2.6,2.8-4.1,3.5-1.6.8-3.5,1.2-5.7,1.2Z"/>
</svg>